<svg width="244" height="163" viewBox="0 0 244 163" fill="none" xmlns="http://www.w3.org/2000/svg">
<path d="M138.859 114.15L137.96 111.026C137.49 109.393 137.816 107.634 138.81 106.567C145.533 99.3771 154.074 94.1611 163.54 91.4365C163.684 91.395 163.78 91.3674 163.938 91.3739C163.45 87.8722 163.484 84.3763 164.034 81.0442C162.949 81.2524 161.879 81.5086 160.773 81.8267C149.146 85.1737 139.213 91.5187 131.53 99.7137C128.021 103.429 126.926 108.843 128.35 113.793L132.016 126.526L176.509 113.718C173.661 111.416 171.135 108.605 169.082 105.45L138.859 114.15ZM159.39 77.0218C170.009 73.9652 176.134 62.8887 173.078 52.2699C170.021 41.6511 158.945 35.526 148.326 38.5825C137.707 41.6391 131.582 52.7156 134.638 63.3344C137.695 73.9533 148.772 80.0784 159.39 77.0218ZM151.092 48.1923C156.377 46.671 161.947 49.7506 163.468 55.036C164.989 60.3214 161.91 65.8906 156.624 67.412C151.339 68.9333 145.77 65.8537 144.248 60.5683C142.727 55.2829 145.807 49.7137 151.092 48.1923ZM216.575 81.3735C216.271 80.3164 215.85 79.3969 215.416 78.4294L219.496 71.9997L212.299 65.0703L206.009 69.4302C204.098 68.5754 202.078 68.0643 199.949 67.8968L196.447 61.1524L186.837 63.9185L187.456 71.4927C185.742 72.7667 184.302 74.2736 183.138 76.0135L175.493 75.6646L173.081 85.3601L179.956 88.6364C180.102 89.6869 180.234 90.6894 180.539 91.7465C180.843 92.8035 181.264 93.723 181.698 94.6906L177.617 101.12L184.815 108.05L191.105 103.69C193.016 104.545 195.036 105.056 197.165 105.223L200.667 111.968L210.277 109.201L209.658 101.627C211.372 100.353 212.812 98.8463 213.976 97.1064L221.621 97.4554L224.033 87.7598L217.158 84.4836C217.012 83.433 216.88 82.4306 216.575 81.3735ZM201.323 96.1698C196.038 97.6912 190.469 94.6115 188.947 89.3261C187.426 84.0407 190.505 78.4715 195.791 76.9502C201.076 75.4288 206.645 78.5085 208.167 83.7938C209.688 89.0792 206.608 94.6484 201.323 96.1698Z" fill="white"/>
<path d="M3 135.256C15.1667 116.422 50.2 77.0557 93 70.2557" stroke="white" stroke-width="5"/>
<path d="M54.9846 123.442C61.109 116.556 79.4892 101.243 104.015 95.0696" stroke="white" stroke-width="5"/>
<path d="M61 160.256C68.2245 151.166 89.7037 131.503 117.824 125.57" stroke="white" stroke-width="5"/>
</svg>
