<svg width="241" height="164" viewBox="0 0 241 164" fill="none" xmlns="http://www.w3.org/2000/svg">
<g clip-path="url(#clip0)">
<path d="M193.628 38.0694L122.916 63.0657C121.978 63.3972 120.947 63.3426 120.05 62.9139C119.152 62.4853 118.462 61.7177 118.13 60.78C117.799 59.8423 117.853 58.8113 118.282 57.9138C118.711 57.0164 119.478 56.326 120.416 55.9945L180.521 34.7477C181.459 34.4162 182.227 33.7258 182.655 32.8284C183.084 31.9309 183.138 30.9 182.807 29.9623C182.475 29.0246 181.785 28.2569 180.888 27.8283C179.99 27.3996 178.959 27.345 178.022 27.6765L117.916 48.9233C115.105 49.9206 112.805 51.9921 111.519 54.6835C110.234 57.3749 110.068 60.4663 111.059 63.2796L131.056 119.849C132.053 122.66 134.125 124.961 136.816 126.246C139.508 127.532 142.599 127.697 145.412 126.707L216.124 101.71C217.998 101.045 219.532 99.6644 220.389 97.8701C221.246 96.0758 221.356 94.0149 220.696 92.1394L203.198 42.641C202.534 40.767 201.153 39.2332 199.358 38.3762C197.564 37.5191 195.503 37.4088 193.628 38.0694ZM213.625 94.639L142.913 119.635C141.975 119.965 140.945 119.91 140.047 119.482C139.15 119.053 138.46 118.286 138.127 117.35L121.665 70.7808C122.943 70.7817 124.211 70.5639 125.415 70.1369L196.127 45.1406L213.625 94.639ZM183.662 77.3887C183.292 76.3398 183.24 75.2045 183.515 74.1264C183.789 73.0482 184.377 72.0757 185.204 71.3317C186.031 70.5878 187.061 70.1058 188.162 69.9468C189.263 69.7877 190.386 69.9588 191.39 70.4383C192.394 70.9178 193.233 71.6842 193.802 72.6406C194.37 73.5971 194.642 74.7005 194.583 75.8115C194.524 76.9224 194.137 77.991 193.471 78.8821C192.805 79.7731 191.889 80.4466 190.84 80.8174C189.434 81.3146 187.887 81.2327 186.541 80.5897C185.195 79.9467 184.16 78.7953 183.662 77.3887Z" fill="white"/>
</g>
<path d="M3 136.082C15.1667 117.249 50.2 77.882 93 71.082" stroke="white" stroke-width="5"/>
<path d="M54.9846 124.268C61.109 117.383 79.4892 102.069 104.015 95.8959" stroke="white" stroke-width="5"/>
<path d="M61 161.082C68.2245 151.992 89.7037 132.33 117.824 126.396" stroke="white" stroke-width="5"/>
<defs>
<clipPath id="clip0">
<rect width="120" height="120" fill="white" transform="translate(86.9181 39.9941) rotate(-19.4682)"/>
</clipPath>
</defs>
</svg>
