<svg width="65" height="80" viewBox="0 0 65 80" fill="none" xmlns="http://www.w3.org/2000/svg">
<path d="M32.9216 55.7311C32.8422 55.8108 32.7627 55.8905 32.6833 55.9702C32.6237 56.03 32.5442 56.1097 32.4846 56.1694C32.5641 56.0897 32.6237 56.01 32.7031 55.9303C32.7627 55.8706 32.8422 55.8108 32.9216 55.7311Z" fill="#0000FF"/>
<path d="M51.0364 47.2029C51.1556 47.3225 51.2748 47.442 51.394 47.5815C51.4933 47.6811 51.5727 47.7608 51.6522 47.8605C52.109 48.3785 52.546 48.8966 52.9433 49.4545C53.0227 49.574 53.1022 49.6737 53.1816 49.7932C53.2809 49.9327 53.3802 50.0722 53.4796 50.2316C53.559 50.3312 53.6186 50.4508 53.698 50.5504C53.7179 50.5703 53.7378 50.5902 53.7378 50.6301C53.8172 50.7496 53.8967 50.8891 53.9761 51.0087C54.0159 51.0884 54.0556 51.1681 54.0953 51.2278C54.1748 51.3673 54.2542 51.5068 54.3337 51.6463C54.3535 51.6861 54.3734 51.706 54.3734 51.7459C54.3932 51.7857 54.4131 51.8455 54.4528 51.8854C54.5124 52.0049 54.572 52.1245 54.6316 52.244C54.6713 52.3038 54.6912 52.3835 54.7309 52.4632C54.7905 52.5628 54.8302 52.6824 54.8898 52.8019C54.9891 53.041 55.1083 53.2602 55.1878 53.4993C55.2275 53.6189 55.2871 53.7384 55.3268 53.858C55.3665 53.9775 55.4261 54.0971 55.4658 54.2166C55.5056 54.3362 55.5453 54.4557 55.585 54.5753C55.7439 55.0535 55.9028 55.5317 56.022 56.0298C56.0617 56.1494 56.0816 56.2689 56.1014 56.3885C56.161 56.6276 56.2206 56.8866 56.2604 57.1257C56.3001 57.2851 56.3199 57.4246 56.3398 57.584C56.3597 57.7434 56.3994 57.8829 56.4193 58.0423C56.459 58.3213 56.4987 58.6002 56.5186 58.8991C56.5186 58.9589 56.5384 59.0186 56.5384 59.0585C56.5583 59.178 56.5583 59.2976 56.5782 59.4171C56.598 59.5765 56.598 59.716 56.598 59.8754C56.598 60.0348 56.6179 60.1743 56.6179 60.3337C56.6179 60.6525 56.6377 60.9713 56.6179 61.2901C56.6179 61.4296 56.6179 61.5691 56.598 61.7085C56.598 61.9477 56.5782 62.2067 56.5583 62.4458C56.5583 62.5454 56.5384 62.6251 56.5384 62.7247C56.4391 63.721 56.2604 64.7173 56.0021 65.6936C55.9823 65.7932 55.9425 65.8929 55.9227 65.9925C55.9028 66.0722 55.883 66.1718 55.8432 66.2515C55.8035 66.3711 55.7638 66.4906 55.7241 66.6102C55.5254 67.2677 55.2672 67.9252 54.9891 68.5828C54.9494 68.7023 54.8898 68.8219 54.8302 68.9414C54.7706 69.061 54.7111 69.2005 54.6515 69.32C54.5919 69.4595 54.5124 69.5791 54.4528 69.7185C54.4131 69.8182 54.3535 69.9178 54.2939 69.9975C54.2343 70.0971 54.1946 70.1967 54.135 70.2764C53.7576 70.934 53.3604 71.5716 52.9035 72.1893C52.8241 72.2889 52.7446 72.4084 52.6652 72.5081C52.6453 72.528 52.6255 72.5678 52.6056 72.5878C52.5063 72.7073 52.4268 72.807 52.3275 72.9265C52.2282 73.0461 52.1289 73.1855 52.0097 73.3051C51.9303 73.4047 51.8309 73.5043 51.7515 73.604C51.6919 73.6637 51.6323 73.7434 51.5727 73.8032C51.4933 73.8829 51.4337 73.9626 51.3542 74.0423C51.2351 74.1619 51.1357 74.2814 51.0166 74.3811C50.8974 74.5006 50.7981 74.6002 50.6789 74.7198C50.5995 74.7995 50.52 74.8792 50.4405 74.939C50.381 74.9987 50.3015 75.0585 50.2419 75.1183C50.1426 75.2179 50.0433 75.2976 49.944 75.3773C49.8248 75.4769 49.7056 75.5965 49.5666 75.6961C49.4474 75.7957 49.3481 75.8754 49.2289 75.9751C49.209 75.995 49.1693 76.0149 49.1495 76.0348C49.0501 76.1145 48.931 76.1943 48.8317 76.274C48.2159 76.7322 47.5803 77.1307 46.9248 77.5093C46.8255 77.5691 46.7262 77.6089 46.6467 77.6687C46.5474 77.7285 46.4481 77.7683 46.3687 77.8281C46.2296 77.9078 46.1105 77.9676 45.9714 78.0274C45.8522 78.0872 45.7132 78.1469 45.594 78.2067C45.4748 78.2665 45.3557 78.3063 45.2365 78.3661C44.6009 78.6451 43.9454 78.9041 43.2701 79.1033C43.1509 79.1432 43.0317 79.183 42.9125 79.2229C42.8331 79.2428 42.7338 79.2827 42.6543 79.3026C42.555 79.3225 42.4557 79.3624 42.3564 79.3823C41.3831 79.6413 40.39 79.8207 39.3968 79.9203C39.2975 79.9402 39.1982 79.9402 39.1187 79.9402C38.8804 79.9601 38.6222 79.9801 38.3838 79.9801C38.2448 79.9801 38.1057 80 37.9667 80C37.6489 80 37.3311 80 37.0133 80C36.8544 80 36.7153 80 36.5564 79.9801C36.3975 79.9801 36.2585 79.9601 36.0996 79.9601C35.9804 79.9601 35.8612 79.9402 35.7421 79.9203C35.6825 79.9203 35.6229 79.9203 35.5832 79.9004C35.3051 79.8605 35.027 79.8406 34.729 79.8007C34.5701 79.7808 34.4311 79.7609 34.2722 79.721C34.1133 79.7011 33.9743 79.6613 33.8154 79.6413C33.5571 79.6015 33.3188 79.5417 33.0804 79.4819C32.9613 79.462 32.8421 79.4222 32.7229 79.4022C32.2462 79.2827 31.7496 79.1432 31.2729 78.9639C31.1537 78.924 31.0346 78.8842 30.9154 78.8443C30.7962 78.8045 30.677 78.7646 30.5579 78.7048C30.4387 78.665 30.3195 78.6052 30.2003 78.5654C29.962 78.4657 29.7236 78.3661 29.5051 78.2665C29.4058 78.2266 29.2866 78.1669 29.1675 78.1071C29.1079 78.0672 29.0284 78.0473 28.949 78.0075C28.8298 77.9477 28.7106 77.8879 28.5914 77.8281C28.5517 77.8082 28.4921 77.7883 28.4524 77.7484L38.7612 67.4072C38.8009 67.4072 38.8605 67.3873 38.9002 67.3673C38.9797 67.3474 39.0591 67.3275 39.1386 67.3076C39.2379 67.2876 39.3174 67.2677 39.4167 67.2279C39.5756 67.188 39.7146 67.1282 39.8735 67.0685C39.9331 67.0485 40.0126 67.0286 40.0722 66.9888C40.092 66.9888 40.1119 66.9688 40.1317 66.9688C40.1913 66.9489 40.2509 66.929 40.3105 66.8891C40.3701 66.8692 40.4098 66.8493 40.4694 66.8294C40.7078 66.7098 40.9461 66.5903 41.1845 66.4309C41.2242 66.391 41.2838 66.3711 41.3235 66.3312L41.3434 66.3113C41.5023 66.1917 41.681 66.0722 41.8201 65.9526C41.8995 65.8929 41.979 65.8132 42.0584 65.7534C42.1578 65.6737 42.2372 65.594 42.3167 65.5143C42.3961 65.4346 42.4756 65.335 42.555 65.2553C42.6345 65.1756 42.694 65.0959 42.7536 65.0162C42.8728 64.8568 43.0119 64.6973 43.1112 64.5379L43.131 64.518C43.1708 64.4782 43.1906 64.4184 43.2303 64.3785C43.4091 64.1195 43.5481 63.8206 43.6872 63.5417C43.7269 63.4819 43.7468 63.4022 43.7666 63.3424C43.7666 63.3225 43.7865 63.3026 43.7865 63.2826C43.8064 63.2229 43.8461 63.1432 43.866 63.0834C43.9057 62.9439 43.9653 62.8244 44.005 62.6849C44.0447 62.5853 44.0646 62.4856 44.0844 62.3661V62.3462C44.1043 62.2665 44.1242 62.2067 44.144 62.127C44.1639 62.0871 44.1639 62.0274 44.1838 61.9875C44.2036 61.8879 44.2235 61.8082 44.2235 61.7285C44.2632 61.5093 44.2831 61.2901 44.2831 61.0709C44.2831 60.9514 44.3029 60.8518 44.2831 60.7322C44.2831 58.9389 43.568 57.2054 42.2968 55.9302C41.0256 54.655 39.2975 53.9377 37.5098 53.9377C35.8016 53.9377 34.1729 54.5753 32.9215 55.731C32.8421 55.7907 32.7825 55.8704 32.703 55.9302C32.6236 56.0099 32.5441 56.0896 32.4846 56.1693C28.5716 59.995 23.4271 61.7883 18.3422 61.5691C13.6943 61.3897 9.12587 59.5168 5.59028 55.9501C5.47111 55.8306 5.35193 55.711 5.23275 55.5716C5.13344 55.4719 5.05399 55.3922 4.97453 55.2926C4.51769 54.7745 4.08071 54.2565 3.68345 53.6986C3.604 53.579 3.52455 53.4794 3.4451 53.3598C3.34578 53.2204 3.24647 53.0809 3.14716 52.9215C3.0677 52.8219 3.00811 52.7023 2.92866 52.6027C2.9088 52.5828 2.88894 52.5628 2.88894 52.523C2.80949 52.4034 2.73004 52.264 2.65058 52.1444C2.61086 52.0647 2.57113 51.985 2.53141 51.9252C2.45196 51.7857 2.3725 51.6463 2.29305 51.5068C2.27319 51.4669 2.25333 51.447 2.25333 51.4072C2.23347 51.3673 2.2136 51.3075 2.17388 51.2677C2.11429 51.1481 2.0547 51.0286 1.99511 50.909C1.95538 50.8493 1.93552 50.7696 1.8958 50.6899C1.83621 50.5902 1.79648 50.4707 1.73689 50.3511C1.63758 50.112 1.5184 49.8928 1.43895 49.6537C1.39923 49.5342 1.33964 49.4146 1.29991 49.2951C1.26019 49.1755 1.2006 49.056 1.16087 48.9364C1.12115 48.8169 1.08142 48.6973 1.04169 48.5778C0.882792 48.0996 0.72389 47.6214 0.604713 47.1232C0.564987 47.0037 0.545124 46.8841 0.525261 46.7646C0.465673 46.5255 0.406085 46.2664 0.366359 46.0273C0.326634 45.8679 0.306771 45.7285 0.286908 45.569C0.267045 45.4096 0.227319 45.2702 0.207456 45.1108C0.167731 44.8318 0.128005 44.5529 0.108142 44.254C0.108142 44.1942 0.0882795 44.1344 0.0882795 44.0946C0.0684167 43.975 0.0684158 43.8555 0.048553 43.7359C0.0286901 43.5765 0.0286904 43.437 0.0286904 43.2776C0.0286904 43.1182 0.00882792 42.9788 0.00882792 42.8194C0.00882792 42.5006 -0.0110349 42.1817 0.00882792 41.8629C0.00882792 41.7235 0.00882762 41.584 0.0286904 41.4445C0.0286904 41.2054 0.0485542 40.9464 0.068417 40.7073C0.068417 40.6076 0.0882795 40.5279 0.0882795 40.4283C0.187594 39.4321 0.366359 38.4358 0.624575 37.4594C0.644438 37.3598 0.684164 37.2602 0.704027 37.1606C0.72389 37.0809 0.743753 36.9812 0.783479 36.9015C0.823204 36.782 0.86293 36.6624 0.902655 36.5429C1.10128 35.8854 1.3595 35.2278 1.63758 34.5703C1.6773 34.4507 1.73689 34.3312 1.79648 34.2116C1.85607 34.0921 1.91566 33.9526 1.97525 33.833C2.03484 33.6936 2.11429 33.574 2.17388 33.4345C2.2136 33.3349 2.27319 33.2353 2.33278 33.1556C2.39237 33.056 2.43209 32.9563 2.49168 32.8766C2.86908 32.2191 3.26633 31.5815 3.72318 30.9638C3.80263 30.8642 3.88208 30.7446 3.96153 30.645C3.98139 30.6251 4.00126 30.5852 4.02112 30.5653C4.12043 30.4457 4.19988 30.3461 4.2992 30.2266C4.39851 30.107 4.49783 29.9675 4.617 29.848C4.69646 29.7484 4.79577 29.6487 4.87522 29.5491C4.93481 29.4893 4.9944 29.4096 5.05399 29.3498C5.13344 29.2701 5.19303 29.1904 5.27248 29.1107C5.39165 28.9912 5.49097 28.8716 5.61014 28.772C5.72932 28.6525 5.82864 28.5528 5.94781 28.4333C6.02727 28.3536 6.10672 28.2739 6.18617 28.2141C6.24576 28.1543 6.32521 28.0946 6.3848 28.0348C6.48411 27.9352 6.58342 27.8555 6.68274 27.7758C6.80191 27.6761 6.92109 27.5566 7.06013 27.4569C7.17931 27.3573 7.27862 27.2776 7.3978 27.178C7.41766 27.1581 7.45739 27.1381 7.47725 27.1182C7.57657 27.0385 7.69574 26.9588 7.79506 26.8791C8.4108 26.4208 9.04642 26.0223 9.70189 25.6437C9.8012 25.584 9.90052 25.5441 9.97997 25.4843C10.0793 25.4246 10.1786 25.3847 10.258 25.3249C10.3971 25.2452 10.5163 25.1855 10.6553 25.1257C10.7745 25.0659 10.9135 25.0061 11.0327 24.9464C11.1519 24.8866 11.2711 24.8467 11.3902 24.787C12.0258 24.508 12.6813 24.249 13.3566 24.0497C13.4758 24.0099 13.595 23.97 13.7142 23.9302C13.7936 23.9102 13.8929 23.8704 13.9724 23.8505C14.0717 23.8305 14.171 23.7907 14.2703 23.7708C15.2436 23.5117 16.2368 23.3324 17.2299 23.2328C17.3292 23.2129 17.4285 23.2129 17.508 23.2129C17.7463 23.1929 18.0045 23.173 18.2429 23.173C18.3819 23.173 18.521 23.1531 18.66 23.1531C18.9778 23.1531 19.2956 23.1531 19.6134 23.1531C19.7723 23.1531 19.9114 23.1531 20.0703 23.173C20.2292 23.173 20.3682 23.1929 20.5271 23.1929C20.6463 23.1929 20.7655 23.2129 20.8847 23.2328C20.9442 23.2328 21.0038 23.2328 21.0436 23.2527C21.3216 23.2926 21.5997 23.3125 21.8977 23.3523C22.0566 23.3723 22.1956 23.3922 22.3545 23.432C22.5134 23.452 22.6525 23.4918 22.8114 23.5117C23.0696 23.5516 23.3079 23.6114 23.5463 23.6711C23.6655 23.6911 23.7846 23.7309 23.9038 23.7508C24.3805 23.8704 24.8771 24.0099 25.3538 24.1892C25.473 24.229 25.5921 24.2689 25.7113 24.3087C25.8305 24.3486 25.9497 24.3884 26.0689 24.4482C26.188 24.4881 26.3072 24.5479 26.4264 24.5877C26.6647 24.6873 26.9031 24.787 27.1216 24.8866C27.2209 24.9264 27.3401 24.9862 27.4593 25.046C27.5188 25.0858 27.5983 25.1058 27.6777 25.1456C27.7969 25.2054 27.9161 25.2652 28.0353 25.3249C28.075 25.3449 28.1346 25.3648 28.1743 25.4046L17.8655 35.7459C17.8258 35.7459 17.7662 35.7658 17.7265 35.7857C17.647 35.8056 17.5676 35.8256 17.4881 35.8455C17.3888 35.8654 17.3094 35.8854 17.21 35.9252C17.0511 35.9651 16.9121 36.0248 16.7532 36.0846C16.6936 36.1045 16.6142 36.1245 16.5546 36.1643C16.5347 36.1643 16.5148 36.1842 16.495 36.1842C16.4354 36.2042 16.3758 36.2241 16.3162 36.2639C16.2566 36.2839 16.2169 36.3038 16.1573 36.3237C15.919 36.4433 15.6806 36.5628 15.4422 36.7222C15.4025 36.7621 15.3429 36.782 15.3032 36.8218L15.2833 36.8418C15.1244 36.9613 14.9457 37.0809 14.8066 37.2004C14.7272 37.2602 14.6477 37.3399 14.5683 37.3997C14.469 37.4794 14.3895 37.5591 14.3101 37.6388C14.2306 37.7185 14.1512 37.8181 14.0717 37.8978C13.9923 37.9775 13.9327 38.0572 13.8731 38.1369C13.7539 38.2963 13.6149 38.4557 13.5155 38.6151L13.4957 38.635C13.456 38.6749 13.4361 38.7347 13.3964 38.7745C13.2176 39.0336 13.0786 39.3324 12.9395 39.6114C12.8998 39.6712 12.8799 39.7509 12.8601 39.8106C12.8601 39.8306 12.8402 39.8505 12.8402 39.8704C12.8204 39.9302 12.7806 40.0099 12.7608 40.0697C12.721 40.2091 12.6614 40.3287 12.6217 40.4682C12.582 40.5678 12.5621 40.6674 12.5423 40.787V40.8069C12.5224 40.8866 12.5025 40.9464 12.4827 41.0261C12.4628 41.0659 12.4628 41.1257 12.443 41.1656C12.4231 41.2652 12.4032 41.3449 12.4032 41.4246C12.3635 41.6438 12.3436 41.8629 12.3436 42.0821C12.3436 42.2017 12.3238 42.3013 12.3436 42.4209C12.3436 44.2141 13.0587 45.9476 14.3299 47.2229C15.6011 48.4981 17.3292 49.2154 19.1169 49.2154C20.8251 49.2154 22.4538 48.5778 23.7052 47.4221C23.7846 47.3623 23.8442 47.2826 23.9237 47.2229C24.0031 47.1432 24.0826 47.0634 24.1422 46.9837C28.0551 43.1581 33.1996 41.3648 38.2845 41.584C42.9125 41.7832 47.481 43.6562 51.0364 47.2029Z" fill="#1565D8"/>
<path d="M24.1223 47.0038C24.0428 47.0835 23.9832 47.1632 23.9038 47.2429C23.8243 47.3226 23.7648 47.3824 23.6853 47.4421C23.7648 47.3624 23.8442 47.2827 23.9237 47.203C23.9832 47.1433 24.0627 47.0636 24.1223 47.0038Z" fill="#0000FF"/>
<path d="M53.4796 0L60.948 7.49192L55.1878 13.2703L65.0001 23.1134L57.5316 30.6053L47.7194 20.7622L35.7421 32.7771C37.3113 35.5069 38.1455 38.5356 38.2846 41.5841C33.1997 41.3649 28.0751 43.1782 24.1422 46.9839C25.2744 45.7286 25.8901 44.1146 25.8901 42.421C25.8901 40.6078 25.1751 38.8942 23.9039 37.619C22.6326 36.3438 20.9046 35.6265 19.1169 35.6265C18.8984 35.6265 18.6601 35.6464 18.4416 35.6663C18.3224 35.6663 18.2231 35.6862 18.1039 35.7062C18.0046 35.7261 17.9252 35.7261 17.8457 35.746L53.4796 0Z" fill="#363A41"/>
</svg>
