<svg width="28" height="24" viewBox="0 0 28 24" fill="none" xmlns="http://www.w3.org/2000/svg">
<path d="M10.8221 0V2.07C9.63395 1.575 8.35992 1.32 7.08589 1.32C4.52352 1.32 1.96115 2.34 0 4.395L4.76687 9.39H6.35583V11.055C7.58691 12.345 9.19018 13.02 10.8078 13.095V16.5H6.52761V21C6.52761 22.65 7.81595 24 9.39059 24H23.7055C26.0818 24 28 21.99 28 19.5V0H10.8221ZM9.23313 9.615V6.39H5.96933L4.48057 4.83C5.31178 4.49387 6.19494 4.32099 7.08589 4.32C9.00409 4.32 10.7935 5.1 12.1534 6.51L14.1718 8.625L13.8855 8.925C13.5258 9.3055 13.0977 9.60748 12.6259 9.81346C12.1542 10.0194 11.6481 10.1253 11.137 10.125C10.4642 10.125 9.80573 9.945 9.23313 9.615ZM25.137 19.5C25.137 20.325 24.4928 21 23.7055 21C22.9182 21 22.274 20.325 22.274 19.5V16.5H13.6851V12.615C14.501 12.27 15.2597 11.76 15.9182 11.07L16.2045 10.77L20.2556 15H22.274V12.885L13.6851 3.93V3H25.137V19.5Z" fill="white"/>
</svg>
