<svg width="13" height="15" viewBox="0 0 13 15" fill="none" xmlns="http://www.w3.org/2000/svg">
<path d="M1.22119 1.96986L1.21875 3.56179V11.4382C1.21875 12.0845 1.49696 12.7044 1.99217 13.1614C2.48738 13.6185 3.15904 13.8752 3.85938 13.8752H10.8599C10.7337 14.2042 10.5002 14.489 10.1914 14.6904C9.88268 14.8918 9.51386 15 9.13575 15H3.85938C2.83581 15 1.85416 14.6247 1.13038 13.9568C0.406612 13.2888 0 12.3829 0 11.4382V3.56179C0 2.82693 0.509437 2.20081 1.22119 1.96986ZM11.1719 0C11.4119 0 11.6497 0.0436398 11.8715 0.128428C12.0933 0.213215 12.2948 0.337491 12.4646 0.494158C12.6343 0.650826 12.769 0.836817 12.8608 1.04151C12.9527 1.24621 13 1.4656 13 1.68716V11.4352C13 11.6568 12.9527 11.8762 12.8608 12.0809C12.769 12.2856 12.6343 12.4715 12.4646 12.6282C12.2948 12.7849 12.0933 12.9092 11.8715 12.9939C11.6497 13.0787 11.4119 13.1224 11.1719 13.1224H3.85938C3.37453 13.1224 2.90954 12.9446 2.5667 12.6282C2.22386 12.3118 2.03125 11.8827 2.03125 11.4352V1.68716C2.03125 1.2397 2.22386 0.810563 2.5667 0.494158C2.90954 0.177754 3.37453 0 3.85938 0H11.1719Z" fill="#1565D8"/>
</svg>
