<svg width="142" height="142" viewBox="0 0 142 142" fill="none" xmlns="http://www.w3.org/2000/svg">
<path d="M121.715 66.3627V71.0284C121.708 81.9646 118.167 92.6057 111.619 101.365C105.071 110.124 95.8671 116.532 85.3797 119.632C74.8924 122.733 63.6837 122.361 53.4252 118.571C43.1668 114.781 34.4083 107.777 28.456 98.6021C22.5037 89.4278 19.6765 78.575 20.3961 67.6626C21.1156 56.7502 25.3434 46.3627 32.4488 38.0493C39.5543 29.736 49.1567 23.9422 59.8239 21.532C70.4912 19.1219 81.6518 20.2246 91.6412 24.6756M121.715 30.4571L71.0004 81.2221M71.0004 81.2221L55.7861 66.0078M71.0004 81.2221L86.2147 96.4364M96.499 55.5L45.7847 106.265" stroke="#F0424C" stroke-width="2.15745" stroke-linecap="round" stroke-linejoin="round"/>
</svg>
