<svg width="15" height="15" viewBox="0 0 15 15" fill="none" xmlns="http://www.w3.org/2000/svg">
<path d="M14.9923 14.4213L13.9665 8.60406H14.3129C14.5916 8.60406 14.8161 8.38325 14.8161 8.10914V4.45431C14.8161 4.1802 14.5916 3.95939 14.3129 3.95939H9.55162V0.494924C9.55162 0.220812 9.32711 0 9.0484 0H5.95162C5.67291 0 5.44839 0.220812 5.44839 0.494924V3.95939H0.687097C0.408388 3.95939 0.183871 4.1802 0.183871 4.45431V8.10914C0.183871 8.38325 0.408388 8.60406 0.687097 8.60406H1.03355L0.00774197 14.4213C0.00193552 14.4499 0 14.4784 0 14.5051C0 14.7792 0.224516 15 0.503226 15H14.4968C14.5258 15 14.5549 14.9981 14.582 14.9924C14.8568 14.9467 15.0407 14.6897 14.9923 14.4213ZM1.53871 5.29188H6.80323V1.33249H8.19678V5.29188H13.4613V7.27157H1.53871V5.29188ZM10.5968 13.6675V10.698C10.5968 10.6142 10.5271 10.5457 10.4419 10.5457H9.51291C9.42775 10.5457 9.35807 10.6142 9.35807 10.698V13.6675H5.64194V10.698C5.64194 10.6142 5.57226 10.5457 5.4871 10.5457H4.55807C4.47291 10.5457 4.40323 10.6142 4.40323 10.698V13.6675H1.51549L2.38839 8.71827H12.6097L13.4826 13.6675H10.5968Z" fill="#363A41"/>
</svg>
