<svg width="15" height="15" viewBox="0 0 15 15" fill="none" xmlns="http://www.w3.org/2000/svg">
<path d="M7.5 0C6.01664 0 4.5666 0.439867 3.33323 1.26398C2.09986 2.08809 1.13856 3.25943 0.570907 4.62987C0.00324965 6.00032 -0.145275 7.50832 0.144114 8.96318C0.433503 10.418 1.14781 11.7544 2.1967 12.8033C3.2456 13.8522 4.58197 14.5665 6.03683 14.8559C7.49168 15.1453 8.99968 14.9968 10.3701 14.4291C11.7406 13.8614 12.9119 12.9001 13.736 11.6668C14.5601 10.4334 15 8.98336 15 7.5C15 5.51088 14.2098 3.60322 12.8033 2.1967C11.3968 0.790176 9.48913 0 7.5 0ZM6.56875 3.75C6.56875 3.50136 6.66752 3.2629 6.84334 3.08709C7.01916 2.91127 7.25761 2.8125 7.50625 2.8125C7.75489 2.8125 7.99335 2.91127 8.16916 3.08709C8.34498 3.2629 8.44375 3.50136 8.44375 3.75V8.05625C8.44375 8.17936 8.4195 8.30127 8.37239 8.41501C8.32528 8.52876 8.25622 8.63211 8.16916 8.71916C8.08211 8.80622 7.97876 8.87527 7.86502 8.92239C7.75128 8.9695 7.62937 8.99375 7.50625 8.99375C7.38314 8.99375 7.26123 8.9695 7.14749 8.92239C7.03374 8.87527 6.93039 8.80622 6.84334 8.71916C6.75628 8.63211 6.68723 8.52876 6.64012 8.41501C6.593 8.30127 6.56875 8.17936 6.56875 8.05625V3.75ZM7.5 12.1875C7.28739 12.1875 7.07955 12.1244 6.90276 12.0063C6.72598 11.8882 6.5882 11.7203 6.50683 11.5239C6.42547 11.3275 6.40418 11.1113 6.44566 10.9028C6.48714 10.6942 6.58952 10.5027 6.73986 10.3524C6.8902 10.202 7.08175 10.0996 7.29028 10.0582C7.49881 10.0167 7.71496 10.038 7.91139 10.1193C8.10782 10.2007 8.27571 10.3385 8.39383 10.5153C8.51196 10.692 8.575 10.8999 8.575 11.1125C8.575 11.3976 8.46174 11.671 8.26014 11.8726C8.05854 12.0742 7.78511 12.1875 7.5 12.1875Z"/>
</svg>
