<svg width="30" height="30" viewBox="0 0 30 30" fill="none" xmlns="http://www.w3.org/2000/svg">
<circle cx="15" cy="15" r="15" fill="#F4F4F4"/>
<path d="M15.321 7.01289C14.6741 6.96083 14.0242 7.06695 13.4275 7.32211C12.8307 7.57727 12.3051 7.97379 11.8958 8.47747C11.4865 8.98115 11.2059 9.57685 11.0783 10.2132C10.9506 10.8495 10.9797 11.5073 11.163 12.1299L7.176 16.1159C7.06345 16.2283 7.00014 16.3808 7 16.5399V19.3999C7 19.559 7.06321 19.7116 7.17574 19.8242C7.28826 19.9367 7.44087 19.9999 7.6 19.9999H10.4C10.5591 19.9999 10.7117 19.9367 10.8243 19.8242C10.9368 19.7116 11 19.559 11 19.3999V17.9999H12.9C13.0591 17.9999 13.2117 17.9367 13.3243 17.8242C13.4368 17.7116 13.5 17.559 13.5 17.3999V15.7069L14.235 14.9719C14.0196 14.7081 13.8291 14.4249 13.666 14.1259L12.676 15.1169C12.5634 15.2293 12.5001 15.3818 12.5 15.5409V16.9999H10.601C10.4419 16.9999 10.2893 17.0631 10.1767 17.1756C10.0642 17.2882 10.001 17.4408 10.001 17.5999V18.9999H8.001V16.7069L12.321 12.3869L12.203 12.0839C12.0528 11.6961 11.9849 11.2813 12.0036 10.8658C12.0222 10.4504 12.127 10.0433 12.3113 9.67049C12.4956 9.29768 12.7554 8.96724 13.0741 8.70014C13.3929 8.43303 13.7637 8.2351 14.163 8.11889C14.493 7.69589 14.883 7.32289 15.32 7.01289H15.321ZM18.501 11.2499C18.5995 11.2499 18.697 11.2305 18.788 11.1928C18.879 11.1551 18.9617 11.0999 19.0313 11.0302C19.101 10.9606 19.1562 10.8779 19.1939 10.7869C19.2316 10.6959 19.251 10.5984 19.251 10.4999C19.251 10.4014 19.2316 10.3039 19.1939 10.2129C19.1562 10.1219 19.101 10.0392 19.0313 9.96956C18.9617 9.89992 18.879 9.84468 18.788 9.80698C18.697 9.76929 18.5995 9.74989 18.501 9.74989C18.3021 9.74989 18.1113 9.82891 17.9707 9.96956C17.83 10.1102 17.751 10.301 17.751 10.4999C17.751 10.6988 17.83 10.8896 17.9707 11.0302C18.1113 11.1709 18.3021 11.2499 18.501 11.2499ZM14.001 11.4999C14.0011 10.7225 14.2025 9.95832 14.5858 9.28192C14.969 8.60553 15.5209 8.03995 16.1878 7.64032C16.8546 7.24068 17.6136 7.02062 18.3908 7.00159C19.168 6.98255 19.9369 7.16518 20.6225 7.53169C21.3081 7.8982 21.887 8.43607 22.3029 9.0929C22.7188 9.74972 22.9575 10.5031 22.9956 11.2796C23.0337 12.0561 22.87 12.8292 22.5205 13.5236C22.1709 14.218 21.6474 14.81 21.001 15.2419V17.2919L21.784 18.0759C21.8964 18.1884 21.9595 18.3409 21.9595 18.4999C21.9595 18.6589 21.8964 18.8114 21.784 18.9239L20.708 19.9999L21.776 21.0669C21.8357 21.1266 21.8821 21.1982 21.9122 21.2771C21.9423 21.356 21.9554 21.4403 21.9507 21.5246C21.946 21.6089 21.9235 21.6912 21.8848 21.7662C21.8461 21.8412 21.792 21.9072 21.726 21.9599L19.376 23.8399C19.2696 23.9251 19.1373 23.9715 19.001 23.9715C18.8647 23.9715 18.7324 23.9251 18.626 23.8399L16.226 21.9199C16.1558 21.8637 16.0992 21.7925 16.0602 21.7115C16.0213 21.6305 16.0011 21.5418 16.001 21.4519V15.2419C15.3854 14.831 14.8807 14.2744 14.5318 13.6217C14.1829 12.9689 14.0006 12.2401 14.001 11.4999ZM18.501 7.99989C17.7302 7.99955 16.9809 8.25363 16.3693 8.72271C15.7578 9.1918 15.3181 9.84964 15.1186 10.5941C14.9192 11.3386 14.9711 12.1282 15.2662 12.8402C15.5614 13.5522 16.0833 14.1469 16.751 14.5319C16.827 14.5758 16.8901 14.6389 16.934 14.7149C16.9779 14.7909 17.001 14.8771 17.001 14.9649V21.2599L19.001 22.8599L20.752 21.4589L19.718 20.4239C19.6056 20.3114 19.5425 20.1589 19.5425 19.9999C19.5425 19.8409 19.6056 19.6884 19.718 19.5759L20.794 18.4999L20.177 17.8829C20.0644 17.7705 20.0011 17.618 20.001 17.4589V14.9649C20.001 14.8771 20.0241 14.7909 20.068 14.7149C20.1119 14.6389 20.175 14.5758 20.251 14.5319C20.9187 14.1469 21.4406 13.5522 21.7358 12.8402C22.0309 12.1282 22.0828 11.3386 21.8834 10.5941C21.6839 9.84964 21.2443 9.1918 20.6327 8.72271C20.0211 8.25363 19.2718 7.99955 18.501 7.99989Z" fill="#737B7D"/>
</svg>
