<svg width="15" height="15" viewBox="0 0 15 15" fill="none" xmlns="http://www.w3.org/2000/svg">
<path d="M11.875 6.25H3.125C2.43464 6.25 1.875 6.80964 1.875 7.5V12.5C1.875 13.1904 2.43464 13.75 3.125 13.75H11.875C12.5654 13.75 13.125 13.1904 13.125 12.5V7.5C13.125 6.80964 12.5654 6.25 11.875 6.25Z" stroke="white" stroke-width="2" stroke-linecap="round" stroke-linejoin="round"/>
<path d="M3.75 3.75C3.75 3.25272 3.94754 2.77581 4.29917 2.42417C4.65081 2.07254 5.12772 1.875 5.625 1.875H9.375C9.87228 1.875 10.3492 2.07254 10.7008 2.42417C11.0525 2.77581 11.25 3.25272 11.25 3.75V6.25H3.75V3.75Z" stroke="white" stroke-width="2" stroke-linecap="round" stroke-linejoin="round"/>
</svg>
