<svg width="250" height="250" viewBox="0 0 19 19" fill="white"  xmlns="http://www.w3.org/2000/svg">
<path d="M12.125 16.5H14.75C15.2141 16.5 15.6593 16.3156 15.9874 15.9874C16.3156 15.6593 16.5 15.2141 16.5 14.75V12.125C16.5 11.8929 16.5922 11.6704 16.7563 11.5063C16.9204 11.3422 17.1429 11.25 17.375 11.25C17.6071 11.25 17.8296 11.3422 17.9937 11.5063C18.1578 11.6704 18.25 11.8929 18.25 12.125V14.75C18.25 15.6783 17.8813 16.5685 17.2249 17.2249C16.5685 17.8813 15.6783 18.25 14.75 18.25H4.25C3.32174 18.25 2.4315 17.8813 1.77513 17.2249C1.11875 16.5685 0.75 15.6783 0.75 14.75V12.125C0.75 11.8929 0.842187 11.6704 1.00628 11.5063C1.17038 11.3422 1.39294 11.25 1.625 11.25C1.85706 11.25 2.07962 11.3422 2.24372 11.5063C2.40781 11.6704 2.5 11.8929 2.5 12.125V14.75C2.5 15.2141 2.68437 15.6593 3.01256 15.9874C3.34075 16.3156 3.78587 16.5 4.25 16.5H6.875C7.10707 16.5 7.32962 16.5922 7.49372 16.7563C7.65781 16.9204 7.75 17.1429 7.75 17.375C7.75 17.6071 7.65781 17.8296 7.49372 17.9937C7.32962 18.1578 7.10707 18.25 6.875 18.25H12.125C11.8929 18.25 11.6704 18.1578 11.5063 17.9937C11.3422 17.8296 11.25 17.6071 11.25 17.375C11.25 17.1429 11.3422 16.9204 11.5063 16.7563C11.6704 16.5922 11.8929 16.5 12.125 16.5ZM2.5 6.875C2.5 7.10707 2.40781 7.32962 2.24372 7.49372C2.07962 7.65781 1.85706 7.75 1.625 7.75C1.39294 7.75 1.17038 7.65781 1.00628 7.49372C0.842187 7.32962 0.75 7.10707 0.75 6.875V4.25C0.75 3.32174 1.11875 2.4315 1.77513 1.77513C2.4315 1.11875 3.32174 0.75 4.25 0.75H6.875C7.10707 0.75 7.32962 0.842187 7.49372 1.00628C7.65781 1.17038 7.75 1.39294 7.75 1.625C7.75 1.85706 7.65781 2.07962 7.49372 2.24372C7.32962 2.40781 7.10707 2.5 6.875 2.5H4.25C3.78587 2.5 3.34075 2.68437 3.01256 3.01256C2.68437 3.34075 2.5 3.78587 2.5 4.25V6.875ZM16.5 6.875V4.25C16.5 3.78587 16.3156 3.34075 15.9874 3.01256C15.6593 2.68437 15.2141 2.5 14.75 2.5H12.125C11.8929 2.5 11.6704 2.40781 11.5063 2.24372C11.3422 2.07962 11.25 1.85706 11.25 1.625C11.25 1.39294 11.3422 1.17038 11.5063 1.00628C11.6704 0.842187 11.8929 0.75 12.125 0.75H14.75C15.6783 0.75 16.5685 1.11875 17.2249 1.77513C17.8813 2.4315 18.25 3.32174 18.25 4.25V6.875C18.25 7.10707 18.1578 7.32962 17.9937 7.49372C17.8296 7.65781 17.6071 7.75 17.375 7.75C17.1429 7.75 16.9204 7.65781 16.7563 7.49372C16.5922 7.32962 16.5 7.10707 16.5 6.875Z" />
</svg>
