<svg width="17" height="20" viewBox="0 0 17 20" fill="none" xmlns="http://www.w3.org/2000/svg">
<path d="M8.25634 13.9327C8.23642 13.9527 8.21649 13.9726 8.19657 13.9925C8.18162 14.0075 8.1617 14.0274 8.14675 14.0423C8.16668 14.0224 8.18162 14.0025 8.20155 13.9826C8.21649 13.9676 8.23642 13.9527 8.25634 13.9327Z" fill="#1565D8"/>
<path d="M12.7992 11.8008C12.8291 11.8307 12.859 11.8606 12.8889 11.8954C12.9138 11.9203 12.9337 11.9403 12.9537 11.9652C13.0682 12.0947 13.1778 12.2242 13.2774 12.3637C13.2974 12.3936 13.3173 12.4185 13.3372 12.4484C13.3621 12.4832 13.387 12.5181 13.4119 12.5579C13.4319 12.5829 13.4468 12.6127 13.4667 12.6377C13.4717 12.6426 13.4767 12.6476 13.4767 12.6576C13.4966 12.6875 13.5165 12.7223 13.5365 12.7522C13.5464 12.7721 13.5564 12.7921 13.5664 12.807C13.5863 12.8419 13.6062 12.8768 13.6261 12.9116C13.6311 12.9216 13.6361 12.9266 13.6361 12.9365C13.6411 12.9465 13.6461 12.9614 13.656 12.9714C13.671 13.0013 13.6859 13.0312 13.7009 13.0611C13.7108 13.076 13.7158 13.0959 13.7258 13.1159C13.7407 13.1408 13.7507 13.1707 13.7656 13.2005C13.7905 13.2603 13.8204 13.3151 13.8403 13.3749C13.8503 13.4048 13.8652 13.4347 13.8752 13.4646C13.8852 13.4944 13.9001 13.5243 13.9101 13.5542C13.92 13.5841 13.93 13.614 13.94 13.6439C13.9798 13.7634 14.0197 13.883 14.0495 14.0075C14.0595 14.0374 14.0645 14.0673 14.0695 14.0972C14.0844 14.157 14.0994 14.2217 14.1093 14.2815C14.1193 14.3213 14.1243 14.3562 14.1293 14.3961C14.1342 14.4359 14.1442 14.4708 14.1492 14.5106C14.1591 14.5804 14.1691 14.6501 14.1741 14.7248C14.1741 14.7398 14.1791 14.7547 14.1791 14.7647C14.184 14.7946 14.184 14.8245 14.189 14.8543C14.194 14.8942 14.194 14.9291 14.194 14.9689C14.194 15.0088 14.199 15.0436 14.199 15.0835C14.199 15.1632 14.204 15.2429 14.199 15.3226C14.199 15.3575 14.199 15.3923 14.194 15.4272C14.194 15.487 14.189 15.5517 14.184 15.6115C14.184 15.6364 14.1791 15.6563 14.1791 15.6812C14.1542 15.9303 14.1093 16.1794 14.0446 16.4235C14.0396 16.4484 14.0296 16.4733 14.0246 16.4982C14.0197 16.5181 14.0147 16.543 14.0047 16.5629C13.9948 16.5928 13.9848 16.6227 13.9748 16.6526C13.925 16.817 13.8603 16.9814 13.7905 17.1457C13.7806 17.1756 13.7656 17.2055 13.7507 17.2354C13.7357 17.2653 13.7208 17.3002 13.7058 17.3301C13.6909 17.3649 13.671 17.3948 13.656 17.4297C13.6461 17.4546 13.6311 17.4795 13.6162 17.4994C13.6012 17.5243 13.5913 17.5492 13.5763 17.5692C13.4817 17.7335 13.3821 17.8929 13.2675 18.0474C13.2476 18.0723 13.2276 18.1022 13.2077 18.1271C13.2027 18.1321 13.1977 18.142 13.1928 18.147C13.1679 18.1769 13.1479 18.2018 13.123 18.2317C13.0981 18.2616 13.0732 18.2964 13.0433 18.3263C13.0234 18.3512 12.9985 18.3761 12.9786 18.401C12.9636 18.416 12.9487 18.4359 12.9337 18.4509C12.9138 18.4708 12.8989 18.4907 12.8789 18.5106C12.8491 18.5405 12.8241 18.5704 12.7943 18.5953C12.7644 18.6252 12.7395 18.6501 12.7096 18.68C12.6896 18.6999 12.6697 18.7198 12.6498 18.7348C12.6349 18.7497 12.6149 18.7647 12.6 18.7796C12.5751 18.8045 12.5502 18.8245 12.5253 18.8444C12.4954 18.8693 12.4655 18.8992 12.4306 18.9241C12.4007 18.949 12.3758 18.9689 12.3459 18.9938C12.341 18.9988 12.331 19.0038 12.326 19.0088C12.3011 19.0287 12.2712 19.0486 12.2463 19.0685C12.0919 19.1831 11.9325 19.2827 11.7681 19.3774C11.7432 19.3923 11.7183 19.4023 11.6984 19.4172C11.6735 19.4322 11.6486 19.4421 11.6286 19.4571C11.5938 19.477 11.5639 19.492 11.529 19.5069C11.4991 19.5218 11.4642 19.5368 11.4344 19.5517C11.4045 19.5667 11.3746 19.5766 11.3447 19.5916C11.1853 19.6613 11.0209 19.7261 10.8515 19.7759C10.8217 19.7859 10.7918 19.7958 10.7619 19.8058C10.742 19.8108 10.717 19.8207 10.6971 19.8257C10.6722 19.8307 10.6473 19.8406 10.6224 19.8456C10.3783 19.9104 10.1292 19.9552 9.88018 19.9801C9.85527 19.9851 9.83037 19.9851 9.81044 19.9851C9.75067 19.9901 9.68591 19.9951 9.62613 19.9951C9.59126 19.9951 9.5564 20 9.52153 20C9.44182 20 9.36212 20 9.28242 20C9.24257 20 9.2077 20 9.16785 19.9951C9.128 19.9951 9.09313 19.9901 9.05328 19.9901C9.02339 19.9901 8.99351 19.9851 8.96362 19.9801C8.94867 19.9801 8.93373 19.9801 8.92377 19.9751C8.85403 19.9652 8.78429 19.9602 8.70957 19.9502C8.66972 19.9453 8.63485 19.9403 8.595 19.9303C8.55515 19.9253 8.52028 19.9154 8.48043 19.9104C8.41567 19.9004 8.3559 19.8855 8.29612 19.8705C8.26623 19.8656 8.23634 19.8556 8.20646 19.8506C8.0869 19.8207 7.96237 19.7858 7.84282 19.741C7.81293 19.7311 7.78304 19.7211 7.75316 19.7111C7.72327 19.7012 7.69338 19.6912 7.66349 19.6763C7.6336 19.6663 7.60372 19.6514 7.57383 19.6414C7.51405 19.6165 7.45428 19.5916 7.39948 19.5667C7.37457 19.5567 7.34469 19.5418 7.3148 19.5268C7.29986 19.5169 7.27993 19.5119 7.26 19.5019C7.23012 19.487 7.20023 19.472 7.17034 19.4571C7.16038 19.4521 7.14543 19.4471 7.13547 19.4372L9.72078 16.8519C9.73074 16.8519 9.74568 16.8469 9.75565 16.8419C9.77557 16.8369 9.7955 16.8319 9.81542 16.8269C9.84033 16.822 9.86026 16.817 9.88516 16.807C9.92501 16.7971 9.95988 16.7821 9.99973 16.7672C10.0147 16.7622 10.0346 16.7572 10.0495 16.7472C10.0545 16.7472 10.0595 16.7423 10.0645 16.7423C10.0794 16.7373 10.0944 16.7323 10.1093 16.7223C10.1243 16.7174 10.1342 16.7124 10.1492 16.7074C10.2089 16.6775 10.2687 16.6476 10.3285 16.6078C10.3385 16.5978 10.3534 16.5928 10.3634 16.5829L10.3684 16.5779C10.4082 16.548 10.453 16.5181 10.4879 16.4882C10.5078 16.4733 10.5278 16.4533 10.5477 16.4384C10.5726 16.4185 10.5925 16.3986 10.6124 16.3786C10.6324 16.3587 10.6523 16.3338 10.6722 16.3139C10.6921 16.2939 10.7071 16.274 10.722 16.2541C10.7519 16.2142 10.7868 16.1744 10.8117 16.1345L10.8167 16.1296C10.8266 16.1196 10.8316 16.1047 10.8416 16.0947C10.8864 16.0299 10.9213 15.9552 10.9561 15.8855C10.9661 15.8705 10.9711 15.8506 10.9761 15.8357C10.9761 15.8307 10.9811 15.8257 10.9811 15.8207C10.986 15.8058 10.996 15.7858 11.001 15.7709C11.0109 15.736 11.0259 15.7061 11.0358 15.6713C11.0458 15.6464 11.0508 15.6215 11.0558 15.5916V15.5866C11.0608 15.5667 11.0657 15.5517 11.0707 15.5318C11.0757 15.5218 11.0757 15.5069 11.0807 15.4969C11.0857 15.472 11.0906 15.4521 11.0906 15.4322C11.1006 15.3774 11.1056 15.3226 11.1056 15.2678C11.1056 15.2379 11.1106 15.213 11.1056 15.1831C11.1056 14.7348 10.9263 14.3014 10.6075 13.9826C10.2886 13.6638 9.85527 13.4845 9.40695 13.4845C8.97856 13.4845 8.57009 13.6439 8.25627 13.9328C8.23634 13.9477 8.2214 13.9677 8.20148 13.9826C8.18155 14.0025 8.16162 14.0225 8.14668 14.0424C7.16536 14.9988 5.8752 15.4471 4.59998 15.3923C3.43435 15.3475 2.28864 14.8792 1.40197 13.9876C1.37208 13.9577 1.34219 13.9278 1.3123 13.8929C1.2874 13.868 1.26747 13.8481 1.24755 13.8232C1.13297 13.6937 1.02339 13.5642 0.923759 13.4247C0.903834 13.3948 0.883909 13.3699 0.863983 13.34C0.839077 13.3051 0.81417 13.2703 0.789263 13.2304C0.769338 13.2055 0.754394 13.1756 0.734469 13.1507C0.729487 13.1457 0.724506 13.1408 0.724506 13.1308C0.704581 13.1009 0.684656 13.066 0.66473 13.0362C0.654768 13.0162 0.644805 12.9963 0.634842 12.9814C0.614917 12.9465 0.594992 12.9116 0.575066 12.8768C0.570085 12.8668 0.565104 12.8618 0.565104 12.8518C0.560122 12.8419 0.555141 12.8269 0.545178 12.817C0.530234 12.7871 0.51529 12.7572 0.500346 12.7273C0.490384 12.7124 0.485402 12.6924 0.47544 12.6725C0.460496 12.6476 0.450533 12.6177 0.435589 12.5878C0.410682 12.5281 0.380794 12.4733 0.360869 12.4135C0.350907 12.3836 0.335963 12.3537 0.326 12.3238C0.316037 12.2939 0.301094 12.2641 0.291131 12.2342C0.281168 12.2043 0.271205 12.1744 0.261243 12.1445C0.221392 12.0249 0.181542 11.9054 0.151654 11.7809C0.141691 11.751 0.13671 11.7211 0.131728 11.6912C0.116784 11.6314 0.101841 11.5667 0.0918779 11.5069C0.0819153 11.467 0.0769339 11.4322 0.0719525 11.3923C0.0669712 11.3525 0.0570085 11.3176 0.0520272 11.2777C0.0420645 11.208 0.0321019 11.1383 0.0271205 11.0636C0.0271205 11.0486 0.0221393 11.0337 0.0221393 11.0237C0.017158 10.9938 0.0171577 10.9639 0.0121764 10.934C0.00719509 10.8942 0.00719517 10.8593 0.00719517 10.8195C0.00719517 10.7796 0.00221392 10.7447 0.00221392 10.7049C0.00221392 10.6252 -0.0027674 10.5455 0.00221392 10.4658C0.00221392 10.4309 0.00221385 10.3961 0.00719517 10.3612C0.00719517 10.3014 0.0121767 10.2367 0.017158 10.1769C0.017158 10.152 0.0221393 10.132 0.0221393 10.1071C0.0470459 9.85807 0.0918777 9.60901 0.156635 9.36492C0.161616 9.34001 0.171579 9.31511 0.17656 9.2902C0.181542 9.27028 0.186523 9.24537 0.196486 9.22544C0.206448 9.19556 0.216411 9.16567 0.226374 9.13578C0.276187 8.9714 0.340944 8.80701 0.410682 8.64263C0.420645 8.61274 0.435589 8.58285 0.450533 8.55296C0.465477 8.52308 0.480421 8.48821 0.495365 8.45832C0.510309 8.42345 0.530234 8.39356 0.545178 8.35869C0.555141 8.33379 0.570085 8.30888 0.585029 8.28896C0.599973 8.26405 0.609936 8.23914 0.624879 8.21922C0.719525 8.05483 0.819151 7.89543 0.933722 7.74101C0.953647 7.7161 0.973572 7.68621 0.993498 7.66131C0.998479 7.65633 1.00346 7.64636 1.00844 7.64138C1.03335 7.6115 1.05327 7.58659 1.07818 7.5567C1.10309 7.52681 1.12799 7.49194 1.15788 7.46206C1.17781 7.43715 1.20271 7.41224 1.22264 7.38734C1.23758 7.37239 1.25253 7.35247 1.26747 7.33752C1.2874 7.3176 1.30234 7.29767 1.32227 7.27775C1.35215 7.24786 1.37706 7.21797 1.40695 7.19306C1.43684 7.16318 1.46174 7.13827 1.49163 7.10838C1.51156 7.08846 1.53148 7.06853 1.55141 7.05359C1.56635 7.03864 1.58628 7.0237 1.60122 7.00875C1.62613 6.98385 1.65103 6.96392 1.67594 6.944C1.70583 6.91909 1.73572 6.8892 1.77058 6.8643C1.80047 6.83939 1.82538 6.81946 1.85527 6.79456C1.86025 6.78958 1.87021 6.7846 1.87519 6.77961C1.9001 6.75969 1.92999 6.73976 1.95489 6.71984C2.10931 6.60527 2.26872 6.50564 2.4331 6.411C2.45801 6.39605 2.48291 6.38609 2.50284 6.37115C2.52775 6.3562 2.55265 6.34624 2.57258 6.33129C2.60745 6.31137 2.63734 6.29643 2.6722 6.28148C2.70209 6.26654 2.73696 6.25159 2.76685 6.23665C2.79674 6.22171 2.82663 6.21174 2.85651 6.1968C3.01592 6.12706 3.1803 6.0623 3.34966 6.01249C3.37955 6.00253 3.40944 5.99256 3.43933 5.9826C3.45925 5.97762 3.48416 5.96766 3.50409 5.96268C3.52899 5.9577 3.5539 5.94773 3.57881 5.94275C3.82289 5.87799 4.07196 5.83316 4.32102 5.80826C4.34593 5.80327 4.37084 5.80327 4.39076 5.80327C4.45054 5.79829 4.51529 5.79331 4.57507 5.79331C4.60994 5.79331 4.64481 5.78833 4.67968 5.78833C4.75938 5.78833 4.83908 5.78833 4.91878 5.78833C4.95863 5.78833 4.9935 5.78833 5.03335 5.79331C5.0732 5.79331 5.10807 5.79829 5.14792 5.79829C5.17781 5.79829 5.2077 5.80327 5.23759 5.80826C5.25253 5.80826 5.26747 5.80826 5.27744 5.81324C5.34718 5.8232 5.41691 5.82818 5.49163 5.83814C5.53148 5.84312 5.56635 5.84811 5.6062 5.85807C5.64605 5.86305 5.68092 5.87301 5.72077 5.87799C5.78553 5.88796 5.84531 5.9029 5.90508 5.91784C5.93497 5.92283 5.96486 5.93279 5.99475 5.93777C6.1143 5.96766 6.23883 6.00253 6.35838 6.04736C6.38827 6.05732 6.41816 6.06728 6.44805 6.07725C6.47794 6.08721 6.50782 6.09717 6.53771 6.11212C6.5676 6.12208 6.59749 6.13702 6.62738 6.14699C6.68715 6.17189 6.74693 6.1968 6.80172 6.22171C6.82663 6.23167 6.85652 6.24661 6.8864 6.26156C6.90135 6.27152 6.92127 6.2765 6.9412 6.28646C6.97109 6.30141 7.00098 6.31635 7.03086 6.33129C7.04083 6.33628 7.05577 6.34126 7.06573 6.35122L4.48042 8.93653C4.47046 8.93653 4.45552 8.94151 4.44556 8.94649C4.42563 8.95147 4.4057 8.95645 4.38578 8.96143C4.36087 8.96642 4.34095 8.9714 4.31604 8.98136C4.27619 8.99132 4.24132 9.00627 4.20147 9.02121C4.18653 9.02619 4.1666 9.03117 4.15166 9.04113C4.14668 9.04113 4.14169 9.04612 4.13671 9.04612C4.12177 9.0511 4.10683 9.05608 4.09188 9.06604C4.07694 9.07102 4.06698 9.076 4.05203 9.08099C3.99226 9.11087 3.93248 9.14076 3.8727 9.18061C3.86274 9.19057 3.8478 9.19556 3.83783 9.20552L3.83285 9.2105C3.793 9.24039 3.74817 9.27028 3.7133 9.30016C3.69338 9.31511 3.67345 9.33503 3.65353 9.34998C3.62862 9.3699 3.60869 9.38983 3.58877 9.40975C3.56884 9.42968 3.54892 9.45458 3.52899 9.47451C3.50907 9.49443 3.49412 9.51436 3.47918 9.53429C3.44929 9.57414 3.41442 9.61399 3.38951 9.65384L3.38453 9.65882C3.37457 9.66878 3.36959 9.68373 3.35963 9.69369C3.31479 9.75845 3.27993 9.83317 3.24506 9.9029C3.23509 9.91785 3.23011 9.93777 3.22513 9.95272C3.22513 9.9577 3.22015 9.96268 3.22015 9.96766C3.21517 9.9826 3.20521 10.0025 3.20022 10.0175C3.19026 10.0523 3.17532 10.0822 3.16536 10.1171C3.15539 10.142 3.15041 10.1669 3.14543 10.1968V10.2018C3.14045 10.2217 3.13547 10.2367 3.13049 10.2566C3.1255 10.2665 3.1255 10.2815 3.12052 10.2914C3.11554 10.3164 3.11056 10.3363 3.11056 10.3562C3.1006 10.411 3.09562 10.4658 3.09562 10.5206C3.09562 10.5505 3.09064 10.5754 3.09562 10.6053C3.09562 11.0536 3.27494 11.487 3.59375 11.8058C3.91255 12.1246 4.34593 12.3039 4.79425 12.3039C5.22264 12.3039 5.63111 12.1445 5.94493 11.8556C5.96486 11.8406 5.9798 11.8207 5.99973 11.8058C6.01965 11.7858 6.03958 11.7659 6.05452 11.746C7.03584 10.7896 8.32601 10.3413 9.60123 10.3961C10.7619 10.4459 11.9076 10.9141 12.7992 11.8008Z" fill="#1565D8"/>
<path d="M6.04953 11.751C6.0296 11.7709 6.01466 11.7908 5.99474 11.8108C5.97481 11.8307 5.95987 11.8456 5.93994 11.8606C5.95987 11.8406 5.97979 11.8207 5.99972 11.8008C6.01466 11.7858 6.03459 11.7659 6.04953 11.751Z" fill="#1565D8"/>
<path d="M13.4119 0L15.2849 1.87298L13.8403 3.31756L16.3011 5.77834L14.4281 7.65131L11.9673 5.19054L8.9636 8.19428C9.35713 8.87672 9.56634 9.63388 9.60121 10.396C8.32599 10.3412 7.04081 10.7945 6.05451 11.746C6.33844 11.4321 6.49287 11.0287 6.49287 10.6052C6.49287 10.1519 6.31354 9.72355 5.99473 9.40474C5.67593 9.08594 5.24255 8.90661 4.79423 8.90661C4.73944 8.90661 4.67966 8.91159 4.62487 8.91657C4.59498 8.91657 4.57007 8.92155 4.54019 8.92653C4.51528 8.93151 4.49535 8.93151 4.47543 8.9365L13.4119 0Z" fill="#1565D8"/>
</svg>
