<svg width="18" height="18" viewBox="0 0 18 18" fill="none" xmlns="http://www.w3.org/2000/svg">
<path d="M17.9907 17.3056L16.7598 10.3249H17.1755C17.51 10.3249 17.7794 10.0599 17.7794 9.73096V5.34518C17.7794 5.01624 17.51 4.75127 17.1755 4.75127H11.4619V0.593909C11.4619 0.264975 11.1925 0 10.8581 0H7.14194C6.80749 0 6.53807 0.264975 6.53807 0.593909V4.75127H0.824517C0.490065 4.75127 0.220645 5.01624 0.220645 5.34518V9.73096C0.220645 10.0599 0.490065 10.3249 0.824517 10.3249H1.24026L0.00929037 17.3056C0.00232262 17.3398 0 17.3741 0 17.4061C0 17.735 0.26942 18 0.603872 18H17.3961C17.431 18 17.4658 17.9977 17.4983 17.9909C17.8281 17.936 18.0488 17.6277 17.9907 17.3056ZM1.84645 6.35025H8.16388V1.59898H9.83614V6.35025H16.1536V8.72589H1.84645V6.35025ZM12.7161 16.401V12.8376C12.7161 12.7371 12.6325 12.6548 12.5303 12.6548H11.4155C11.3133 12.6548 11.2297 12.7371 11.2297 12.8376V16.401H6.77033V12.8376C6.77033 12.7371 6.68672 12.6548 6.58452 12.6548H5.46968C5.36749 12.6548 5.28388 12.7371 5.28388 12.8376V16.401H1.81858L2.86607 10.4619H15.1316L16.1791 16.401H12.7161Z" fill="#1565D8"/>
</svg>
