<svg width="23" height="15" viewBox="0 0 23 15" fill="none" xmlns="http://www.w3.org/2000/svg">
<path d="M15.5207 11.4338C16.6721 12.0599 17.318 13.0944 17.2057 14.1561C17.1495 14.8094 17.1776 14.8094 16.307 14.9183C15.7735 14.9728 12.3754 15 8.92109 15C4.98941 15 0.889228 14.9728 0.58031 14.8911C-0.571112 14.5917 0.102891 12.5227 1.6194 11.5427C2.82699 10.8076 5.27025 9.66425 5.94425 9.52813C6.871 9.33757 6.98334 8.76588 5.94425 7.05082C5.71958 6.64247 5.46683 5.47187 5.43875 4.2196C5.41066 2.20508 5.77575 0.84392 7.60117 0.163339C7.93817 0.0544465 8.33134 0 8.69643 0C9.90401 0 11.0274 0.653358 11.5048 1.60617C12.1507 2.88566 11.8418 6.23412 11.1678 7.45917C10.3533 8.84755 10.4376 9.28312 11.3363 9.50091C11.8979 9.63702 13.7514 10.4809 15.5207 11.4338ZM21.671 9.71869C22.5696 10.1815 23.0752 11.0254 22.9909 11.8421C22.9628 12.3321 22.9628 12.3593 22.2888 12.441C21.9518 12.4955 20.1826 12.5227 18.1044 12.5227C17.7393 11.6788 17.0372 10.9165 16.0824 10.4265C14.9871 9.82759 13.6953 9.20145 12.7124 8.7931C13.3583 8.49365 13.9199 8.24864 14.1727 8.19419C14.8748 8.03085 14.959 7.64973 14.1727 6.28857C13.9761 5.96189 13.7514 5.0363 13.7234 4.05626C13.6953 2.47731 14.0604 1.38838 15.4645 0.871143C15.7454 0.789474 16.0543 0.735027 16.3351 0.735027C17.2619 0.735027 18.1325 1.22505 18.4975 1.9873C18.975 2.99456 18.7503 5.60799 18.2448 6.58802C17.627 7.67695 17.6831 8.00363 18.3852 8.16697C18.8346 8.27586 20.2668 8.95644 21.671 9.71869Z" fill="#1565D8"/>
</svg>
