<svg width="20" height="17" viewBox="0 0 20 17" fill="none" xmlns="http://www.w3.org/2000/svg">
<path d="M14 1C11.693 1 9.8 2.75278 9.8 4.88889V6.48611C9.23041 7.00167 8.77778 7.61739 8.46868 8.29712C8.15958 8.97686 8.00024 9.70691 8 10.4444C8 13.5056 10.694 16 14 16C17.306 16 20 13.5056 20 10.4444C19.9998 9.70691 19.8404 8.97686 19.5313 8.29712C19.2222 7.61739 18.7696 7.00167 18.2 6.48611V4.88889C18.2 2.75278 16.307 1 14 1ZM14 2.11111C15.653 2.11111 17 3.35833 17 4.88889V5.65278C16.115 5.175 15.0956 4.88889 14 4.88889C12.9044 4.88889 11.885 5.17556 11 5.65278V4.88889C11 3.35833 12.347 2.11111 14 2.11111ZM14 6C16.658 6 18.8 7.98333 18.8 10.4444C18.8 12.9056 16.658 14.8889 14 14.8889C11.342 14.8889 9.2 12.9056 9.2 10.4444C9.2 7.98333 11.342 6 14 6ZM14 9.33333C13.6817 9.33333 13.3765 9.4504 13.1515 9.65877C12.9264 9.86714 12.8 10.1498 12.8 10.4444C12.8 10.8556 13.0418 11.2072 13.4 11.4V13.2222H14.6V11.4C14.9582 11.2072 15.2 10.8556 15.2 10.4444C15.2 10.1498 15.0736 9.86714 14.8485 9.65877C14.6235 9.4504 14.3183 9.33333 14 9.33333Z" fill="#1565D8"/>
<path d="M2.39583 2.125C2.31295 2.125 2.23347 2.18097 2.17486 2.2806C2.11626 2.38023 2.08333 2.51535 2.08333 2.65625C2.08333 2.79715 2.11626 2.93227 2.17486 3.0319C2.23347 3.13153 2.31295 3.1875 2.39583 3.1875H7.60417C7.68705 3.1875 7.76653 3.13153 7.82514 3.0319C7.88374 2.93227 7.91667 2.79715 7.91667 2.65625C7.91667 2.51535 7.88374 2.38023 7.82514 2.2806C7.76653 2.18097 7.68705 2.125 7.60417 2.125H2.39583Z" fill="#1565D8"/>
<path d="M3.84249 10.0718C3.89541 9.98186 3.96555 9.92715 4.04018 9.91766C4.11481 9.90817 4.18897 9.94453 4.24916 10.0201L4.28416 10.0718L4.79249 10.9367V8.76212L4.79166 8.7437V6.06337L4.28333 6.92824L4.24833 6.97995C4.18812 7.05611 4.1138 7.0929 4.03896 7.08359C3.96411 7.07427 3.89374 7.01948 3.8407 6.92922C3.78766 6.83897 3.75549 6.71928 3.75008 6.59203C3.74468 6.46479 3.76639 6.33848 3.81124 6.2362L3.84166 6.1767L4.82791 4.49795C4.85775 4.41994 4.89884 4.3562 4.94727 4.3128C4.9957 4.26941 5.04985 4.2478 5.10458 4.25004C5.20958 4.25004 5.30249 4.32724 5.35916 4.44554L5.38124 4.49866L6.36749 6.17741L6.39791 6.23691C6.43716 6.32717 6.45858 6.43624 6.4591 6.54848C6.45963 6.66072 6.43923 6.77035 6.40083 6.86166L6.36749 6.92824L6.33249 6.97995C6.27936 7.04683 6.21512 7.08334 6.14901 7.08424C6.0829 7.08513 6.01833 7.05035 5.96458 6.98491L5.92541 6.92824L5.41666 6.06337V8.23795L5.41749 8.25637V10.9367L5.92624 10.0718C5.97918 9.98167 6.04941 9.92685 6.12413 9.91736C6.19886 9.90787 6.2731 9.94434 6.33333 10.0201L6.36833 10.0718C6.42119 10.1619 6.45329 10.2812 6.4588 10.408C6.4643 10.5349 6.44285 10.6609 6.39833 10.7632L6.36833 10.8234L5.38208 12.5021C5.35223 12.5801 5.31114 12.6439 5.26272 12.6873C5.21429 12.7307 5.16014 12.7523 5.10541 12.75C5.05068 12.7523 4.99653 12.7307 4.9481 12.6873C4.89968 12.6439 4.85859 12.5801 4.82874 12.5021L3.84249 10.8234C3.81345 10.774 3.79042 10.7155 3.7747 10.651C3.75898 10.5865 3.75089 10.5174 3.75089 10.4476C3.75089 10.3778 3.75898 10.3087 3.7747 10.2442C3.79042 10.1797 3.81345 10.1212 3.84249 10.0718Z" fill="#1565D8"/>
<path d="M2.08333 14.3438C2.08333 14.2029 2.11626 14.0677 2.17486 13.9681C2.23347 13.8685 2.31295 13.8125 2.39583 13.8125H7.60417C7.68705 13.8125 7.76653 13.8685 7.82514 13.9681C7.88374 14.0677 7.91667 14.2029 7.91667 14.3438C7.91667 14.4846 7.88374 14.6198 7.82514 14.7194C7.76653 14.819 7.68705 14.875 7.60417 14.875H2.39583C2.31295 14.875 2.23347 14.819 2.17486 14.7194C2.11626 14.6198 2.08333 14.4846 2.08333 14.3438Z" fill="#1565D8"/>
</svg>
