<svg width="20" height="20" viewBox="0 0 20 20" fill="none" xmlns="http://www.w3.org/2000/svg">
<path d="M2.5 0V2.5H0V4.16667H2.5V6.66667H4.16667V4.16667H6.66667V2.5H4.16667V0H2.5ZM8.33333 2.5V4.16667H15.8333V5.83333H10.8333C9.91667 5.83333 9.16667 6.58333 9.16667 7.5V12.5C9.16667 13.4167 9.91667 14.1667 10.8333 14.1667H15.8333V15.8333H4.16667V8.33333H2.5V15.8333C2.5 16.2754 2.67559 16.6993 2.98816 17.0118C3.30072 17.3244 3.72464 17.5 4.16667 17.5H15.8333C16.75 17.5 17.5 16.75 17.5 15.8333V13.9333C17.7519 13.7879 17.9614 13.5791 18.1075 13.3276C18.2537 13.0762 18.3316 12.7909 18.3333 12.5V7.5C18.3316 7.20914 18.2537 6.92381 18.1075 6.67236C17.9614 6.42091 17.7519 6.21209 17.5 6.06667V4.16667C17.5 3.25 16.75 2.5 15.8333 2.5H8.33333ZM10.8333 7.5H16.6667V12.5H10.8333V7.5ZM13.3333 8.75C13.0018 8.75 12.6839 8.8817 12.4495 9.11612C12.215 9.35054 12.0833 9.66848 12.0833 10C12.0833 10.3315 12.215 10.6495 12.4495 10.8839C12.6839 11.1183 13.0018 11.25 13.3333 11.25C13.6649 11.25 13.9828 11.1183 14.2172 10.8839C14.4516 10.6495 14.5833 10.3315 14.5833 10C14.5833 9.66848 14.4516 9.35054 14.2172 9.11612C13.9828 8.8817 13.6649 8.75 13.3333 8.75Z" fill="#1565D8"/>
</svg>
