<svg width="14" height="17" viewBox="0 0 14 17" fill="none" xmlns="http://www.w3.org/2000/svg">
<path d="M6.94444 0C4.27431 0 2.08333 1.97187 2.08333 4.375V6.17188C1.42409 6.75188 0.900212 7.44456 0.542457 8.20926C0.184702 8.97396 0.000275011 9.79528 0 10.625C0 14.0688 3.11806 16.875 6.94444 16.875C10.7708 16.875 13.8889 14.0688 13.8889 10.625C13.8886 9.79528 13.7042 8.97396 13.3464 8.20926C12.9887 7.44456 12.4648 6.75188 11.8056 6.17188V4.375C11.8056 1.97187 9.61458 0 6.94444 0ZM6.94444 1.25C8.85764 1.25 10.4167 2.65312 10.4167 4.375V5.23438C9.39236 4.69688 8.2125 4.375 6.94444 4.375C5.67639 4.375 4.49653 4.6975 3.47222 5.23438V4.375C3.47222 2.65312 5.03125 1.25 6.94444 1.25ZM6.94444 5.625C10.0208 5.625 12.5 7.85625 12.5 10.625C12.5 13.3938 10.0208 15.625 6.94444 15.625C3.86806 15.625 1.38889 13.3938 1.38889 10.625C1.38889 7.85625 3.86806 5.625 6.94444 5.625ZM6.94444 9.375C6.57609 9.375 6.22282 9.5067 5.96235 9.74112C5.70189 9.97554 5.55556 10.2935 5.55556 10.625C5.55556 11.0875 5.83542 11.4831 6.25 11.7V13.75H7.63889V11.7C8.05347 11.4831 8.33333 11.0875 8.33333 10.625C8.33333 10.2935 8.187 9.97554 7.92654 9.74112C7.66607 9.5067 7.3128 9.375 6.94444 9.375Z" fill="#1565D8"/>
</svg>
