<svg width="18" height="17" viewBox="0 0 18 17" fill="none" xmlns="http://www.w3.org/2000/svg">
<path d="M16.075 11.6417L17.025 10.8083L16.1917 9.36667L14.9833 9.775C14.7167 9.55 14.4167 9.375 14.0833 9.25L13.8333 8H12.1667L11.9167 9.24167C11.5833 9.36667 11.2833 9.54167 11.0167 9.76667L9.80833 9.35833L8.975 10.8L9.925 11.6333C9.85833 12.05 9.85833 12.2667 9.925 12.6833L8.975 13.5167L9.80833 14.9583L11.0167 14.55C11.2833 14.775 11.5833 14.95 11.9167 15.075L12.1667 16.3333H13.8333L14.0833 15.0917C14.4167 14.9667 14.7167 14.7917 14.9833 14.5667L16.1917 14.975L17.025 13.5333L16.075 12.7C16.1417 12.275 16.1417 12.0583 16.075 11.6417ZM13 13.8333C12.0833 13.8333 11.3333 13.0833 11.3333 12.1667C11.3333 11.25 12.0833 10.5 13 10.5C13.9167 10.5 14.6667 11.25 14.6667 12.1667C14.6667 13.0833 13.9167 13.8333 13 13.8333ZM13.8333 1.33333V6.33333H12.1667V3H10.5V8H8.83333V2.16667H3.83333V13.8333H8V15.5H0.5V13.8333H2.16667V0.5H10.5V1.33333H13.8333ZM8 8.83333H6.33333V7.16667H8V8.83333Z" fill="#1565D8"/>
</svg>
