<svg width="22" height="22" viewBox="0 0 22 22"  fill="black" xmlns="http://www.w3.org/2000/svg">
<path d="M10.7334 6C8.13338 6 6.06671 8.06667 6.06671 10.6667C6.06671 13.2667 8.13338 15.3333 10.7334 15.3333C13.3334 15.3333 15.4 13.2667 15.4 10.6667C15.4 8.06667 13.3334 6 10.7334 6ZM10.7334 14C8.86671 14 7.40005 12.5333 7.40005 10.6667C7.40005 8.8 8.86671 7.33333 10.7334 7.33333C12.6 7.33333 14.0667 8.8 14.0667 10.6667C14.0667 12.5333 12.6 14 10.7334 14Z"/>
<path d="M20.5333 8.46667L18.6667 7.86667L18.2667 6.86667L19.2 5.13333C19.4 4.73333 19.3333 4.2 19 3.86667L17.4 2.26667C17.0667 1.93333 16.5333 1.86667 16.1333 2.06667L14.4 3L13.4 2.6L12.8 0.733333C12.6667 0.333333 12.2667 0 11.8 0H9.53333C9.06667 0 8.66667 0.333333 8.6 0.8L8 2.66667C7.6 2.73333 7.26667 2.86667 6.93333 3.06667L5.2 2.13333C4.8 1.93333 4.26667 2 3.93333 2.33333L2.33333 3.93333C2 4.26667 1.93333 4.8 2.13333 5.2L3 6.86667C2.86667 7.2 2.73333 7.6 2.6 7.93333L0.733333 8.53333C0.333333 8.66667 0 9.06667 0 9.53333V11.8C0 12.2667 0.333333 12.6667 0.8 12.8L2.66667 13.4L3.06667 14.4L2.13333 16.1333C1.93333 16.5333 2 17.0667 2.33333 17.4L3.93333 19C4.26667 19.3333 4.8 19.4 5.2 19.2L6.93333 18.2667L7.93333 18.6667L8.53333 20.6C8.66667 21 9.06667 21.3333 9.53333 21.3333H11.8C12.2667 21.3333 12.6667 21 12.8 20.6L13.4 18.6667L14.4 18.2667L16.1333 19.2C16.5333 19.4 17.0667 19.3333 17.4 19L19 17.4C19.3333 17.0667 19.4 16.5333 19.2 16.1333L18.2667 14.4L18.6667 13.4L20.6 12.8C21 12.6667 21.3333 12.2667 21.3333 11.8V9.53333C21.3333 9.06667 21 8.6 20.5333 8.46667ZM20 11.6L17.6 12.3333L17.5333 12.6667L16.9333 14.0667L16.7333 14.4L17.9333 16.6L16.6 17.9333L14.4 16.7333L14.0667 16.9333C13.6 17.2 13.1333 17.4 12.6667 17.5333L12.3333 17.6L11.6 20H9.73333L9 17.6L8.66667 17.5333L7.26667 16.9333L6.93333 16.7333L4.73333 17.9333L3.4 16.6L4.6 14.4L4.4 14.0667C4.13333 13.6 3.93333 13.1333 3.8 12.6667L3.73333 12.3333L1.33333 11.6V9.73333L3.6 9.06667L3.73333 8.73333C3.86667 8.2 4.06667 7.73333 4.33333 7.26667L4.53333 6.93333L3.4 4.73333L4.73333 3.4L6.86667 4.6L7.2 4.4C7.66667 4.13333 8.13333 3.93333 8.66667 3.8L9 3.66667L9.73333 1.33333H11.6L12.3333 3.66667L12.6667 3.8C13.1333 3.93333 13.6 4.13333 14.0667 4.4L14.4 4.6L16.6 3.4L17.9333 4.73333L16.7333 6.93333L16.9333 7.26667C17.2 7.73333 17.4 8.2 17.5333 8.66667L17.6 9L20 9.73333V11.6Z" />
</svg>
