<svg width="30" height="30" viewBox="0 0 30 30" fill="none" xmlns="http://www.w3.org/2000/svg">
<circle cx="15" cy="15" r="15" fill="#F4F4F4"/>
<path d="M21.25 10.625H8.75C7.71447 10.625 6.875 11.4645 6.875 12.5V20C6.875 21.0355 7.71447 21.875 8.75 21.875H21.25C22.2855 21.875 23.125 21.0355 23.125 20V12.5C23.125 11.4645 22.2855 10.625 21.25 10.625Z" stroke="#737B7D" stroke-width="1.25" stroke-linejoin="round"/>
<path d="M21.0687 10.625V9.45311C21.0687 9.16569 21.0051 8.88183 20.8827 8.62179C20.7603 8.36175 20.582 8.13193 20.3605 7.94874C20.139 7.76555 19.8798 7.63349 19.6015 7.562C19.3231 7.49051 19.0323 7.48133 18.75 7.53514L8.4625 9.291C8.01575 9.37613 7.61272 9.6145 7.32291 9.965C7.0331 10.3155 6.87469 10.7561 6.875 11.2109V13.125" stroke="#737B7D" stroke-width="1.25" stroke-linejoin="round"/>
<path d="M19.375 17.5C19.1278 17.5 18.8861 17.4267 18.6805 17.2893C18.475 17.152 18.3148 16.9568 18.2202 16.7284C18.1255 16.4999 18.1008 16.2486 18.149 16.0061C18.1973 15.7637 18.3163 15.5409 18.4911 15.3661C18.6659 15.1913 18.8887 15.0723 19.1311 15.024C19.3736 14.9758 19.6249 15.0005 19.8534 15.0952C20.0818 15.1898 20.277 15.35 20.4143 15.5555C20.5517 15.7611 20.625 16.0028 20.625 16.25C20.625 16.5815 20.4933 16.8995 20.2589 17.1339C20.0245 17.3683 19.7065 17.5 19.375 17.5Z" fill="#737B7D"/>
</svg>
