<svg width="14" height="9" viewBox="0 0 14 9" fill="none" xmlns="http://www.w3.org/2000/svg">
<path d="M13.9 2C13.1 2.9 11.6 3.8 10 3.8C8.5 3.8 7.6 3.3 6.8 2.9C6 2.6 5.2 2.1 3.9 2.1C2.7 2.1 1.6 2.8 1 3.4L0 1.9C0.9 1 2.3 0 3.9 0C5.4 0 6.3 0.600001 7.1 0.900001C7.9 1.2 8.7 1.8 10 1.8C11.2 1.8 12.3 1 12.9 0.4L13.9 2ZM14 6.9C13.1 7.8 11.7 8.8 10.1 8.8C8.6 8.8 7.7 8.3 6.9 7.9C6.1 7.6 5.3 7 4 7C2.8 7 1.7 7.8 1.1 8.4L0.0999999 6.8C1 5.9 2.4 4.9 4 4.9C5.5 4.9 6.4 5.4 7.2 5.8C8 6.1 8.8 6.6 10.1 6.6C11.3 6.6 12.4 5.8 13 5.2L14 6.9Z" fill="white"/>
</svg>
